<svg id="Layer_3" enable-background="new 0 0 64 64" height="512" viewBox="0 0 64 64" width="512" xmlns="http://www.w3.org/2000/svg" xmlns:xlink="http://www.w3.org/1999/xlink"><linearGradient id="SVGID_1_" gradientUnits="userSpaceOnUse" x1="32" x2="32" y1="63" y2=".998"><stop offset="0" stop-color="#9f2fff"/><stop offset="1" stop-color="#0bb1d3"/></linearGradient><path d="m56.673 14.968c3.274-.313 5.98-3.02 6.294-6.294.088-.916-.003-1.826-.27-2.705l-.484-1.597-4.483 4.483-1.939-.646-.646-1.938 4.484-4.484-1.597-.484c-.876-.267-1.785-.357-2.705-.27-3.274.313-5.98 3.02-6.301 6.366-.132 1.547-.712 2.875-1.677 3.839l-5.349 5.348-5.349-5.349c-.942-.942-1.527-2.191-1.648-3.518l-.017-.185c-.281-3.091-2.51-5.706-5.419-6.359-1.213-.273-2.423-.231-3.599.126l-1.597.483 4.484 4.485-.646 1.938-1.939.648-4.484-4.484-.484 1.598c-.356 1.177-.398 2.387-.126 3.599.653 2.91 3.269 5.139 6.354 5.418l.188.019c1.327.12 2.576.705 3.519 1.647l.349.348h-25.586c-2.757 0-5 2.243-5 5v36c0 2.757 2.243 5 5 5h28c2.757 0 5-2.243 5-5v-27.586l3-3 5.329 5.329c-.219.736-.329 1.493-.329 2.257 0 4.411 3.589 8 8 8s8-3.589 8-8-3.589-8-8-8c-.764 0-1.52.11-2.256.329l-5.33-5.329 5.349-5.349c.964-.963 2.292-1.544 3.91-1.683zm-28.768-1.955-.188-.019c-2.237-.202-4.124-1.792-4.589-3.865-.052-.232-.088-.465-.108-.696l2.711 2.712 4.061-1.354 1.354-4.062-2.711-2.711c.232.02.464.057.697.108 2.073.465 3.662 2.353 3.865 4.589l.014.185c.163 1.791.954 3.479 2.226 4.751l5.349 5.349-2.586 2.586-5.349-5.349c-1.272-1.272-2.96-2.063-4.746-2.224zm-1.936 29.685c.662.201 1.343.302 2.031.302.223 0 .448-.011.673-.032 1.673-.16 3.193-.951 4.327-2.128v4.16h-26v-10h14.094c-.016.11-.051.215-.062.326-.088.916.003 1.826.27 2.705l.484 1.597 4.484-4.483 1.939.646.646 1.938-4.484 4.484zm7.031-21.698h-26v-2h26zm-26 26h26v10h-26zm14.691-14h-14.691v-10h26v2.586l-1.763 1.763c-.964.964-2.292 1.544-3.911 1.684-2.453.234-4.587 1.813-5.635 3.967zm13.309-12.586 1.586 1.586-1.586 1.586zm2 37.586c0 1.654-1.346 3-3 3h-28c-1.654 0-3-1.346-3-3v-36c0-1.302.839-2.402 2-2.816v37.816c0 1.103.897 2 2 2h26c1.103 0 2-.897 2-2v-20.554c.158-1.478.721-2.753 1.651-3.683l.349-.349zm15.23-28.355.607-.235c.701-.272 1.429-.41 2.163-.41 3.309 0 6 2.691 6 6s-2.691 6-6 6-6-2.691-6-6c0-.734.138-1.462.409-2.162l.236-.607-6.231-6.231 2.586-2.586zm-16.993 1.704c-1.302 1.302-2.083 3.06-2.261 5.134-.224 2.338-2.156 4.271-4.493 4.495-.017.001-.034.003-.051.004l2.711-2.711-1.354-4.062-4.061-1.354-2.711 2.712c.001-.017.003-.033.005-.05.224-2.338 2.156-4.271 4.545-4.499 2.023-.174 3.781-.954 5.083-2.256l16.111-16.111c1.302-1.302 2.083-3.06 2.261-5.134.224-2.338 2.156-4.271 4.493-4.495.017-.001.034-.003.051-.004l-2.711 2.711 1.354 4.062 4.061 1.354 2.711-2.712c-.001.017-.003.033-.005.05-.224 2.338-2.156 4.271-4.545 4.499-2.023.174-3.781.954-5.083 2.256zm-26.237-.349h10v-6h-10zm2-4h6v2h-6zm20 0h-2v-2h2zm-4 0h-2v-2h2zm-18 28h10v-6h-10zm2-4h6v2h-6zm18-2h2v2h-2zm0 4h2v2h-2zm-4 0h2v2h-2zm0-4h2v2h-2zm-16-12h2v2h-2zm0 4h2v2h-2zm4 0h2v2h-2zm0-4h2v2h-2zm42 2c2.206 0 4-1.794 4-4s-1.794-4-4-4-4 1.794-4 4 1.794 4 4 4zm0-6c1.103 0 2 .897 2 2s-.897 2-2 2-2-.897-2-2 .897-2 2-2z" fill="url(#SVGID_1_)"/></svg>