<svg id="Layer_3" enable-background="new 0 0 64 64" height="512" viewBox="0 0 64 64" width="512" xmlns="http://www.w3.org/2000/svg" xmlns:xlink="http://www.w3.org/1999/xlink"><linearGradient id="SVGID_1_" gradientUnits="userSpaceOnUse" x1="32" x2="32" y1="63" y2="1"><stop offset="0" stop-color="#9f2fff"/><stop offset="1" stop-color="#0bb1d3"/></linearGradient><path d="m23.741 44.102-.654-7.196c-.099-1.087-.996-1.906-2.087-1.906s-1.988.819-2.086 1.905l-.654 7.196c-.772.73-1.26 1.756-1.26 2.899 0 2.206 1.794 4 4 4s4-1.794 4-4c0-1.143-.488-2.169-1.259-2.898zm-2.835-7.015c.009-.1.18-.1.188 0l.544 5.978c-.209-.034-.42-.065-.638-.065s-.429.031-.638.065zm.094 11.913c-1.103 0-2-.897-2-2s.897-2 2-2 2 .897 2 2-.897 2-2 2zm22-48c-9.695 0-20 2.804-20 8v14.101c-.658-.065-1.325-.101-2-.101-11.028 0-20 8.972-20 20s8.972 20 20 20 20-8.972 20-20c0-.693-.036-1.377-.105-2.052.723.031 1.427.052 2.105.052 9.695 0 20-2.804 20-8v-24c0-5.196-10.305-8-20-8zm-22 60c-9.925 0-18-8.075-18-18s8.075-18 18-18 18 8.075 18 18-8.075 18-18 18zm22-22c-.771 0-1.579-.028-2.418-.07-.459-2.212-1.302-4.28-2.428-6.161 1.575.15 3.196.231 4.846.231 7.108 0 14.537-1.509 18-4.36v4.36c0 2.838-7.392 6-18 6zm0-8c-2.186 0-4.318-.142-6.348-.414-2.875-3.617-6.962-6.227-11.652-7.183v-2.763c3.463 2.851 10.892 4.36 18 4.36s14.537-1.509 18-4.36v4.36c0 2.838-7.392 6-18 6zm0-8c-10.608 0-18-3.162-18-6v-4.36c3.463 2.851 10.892 4.36 18 4.36s14.537-1.509 18-4.36v4.36c0 2.838-7.392 6-18 6zm-12-12c0-1.67 4.565-4 12-4s12 2.33 12 4-4.565 4-12 4-12-2.33-12-4zm25.339 1.922c.421-.583.661-1.222.661-1.922 0-3.897-7.213-6-14-6s-14 2.103-14 6c0 .7.24 1.339.661 1.922-2.944-1.126-4.661-2.56-4.661-3.922 0-2.838 7.392-6 18-6s18 3.162 18 6c0 1.362-1.717 2.796-4.661 3.922zm.617 3.255 1.124 1.654c-.492.334-1.161.681-1.934 1.001l-.766-1.848c.821-.339 1.31-.627 1.576-.807zm-7.134 2.299.32 1.975c-.643.104-1.32.198-2.031.277l-.221-1.988c.676-.076 1.32-.165 1.932-.264zm3.766-.859.582 1.914c-.627.19-1.302.368-2.005.526l-.439-1.951c.654-.147 1.281-.312 1.862-.489zm3.368 14.556 1.124 1.654c-.492.334-1.161.681-1.934 1.001l-.766-1.848c.821-.339 1.31-.626 1.576-.807zm-3.368 1.44.582 1.914c-.627.19-1.302.368-2.005.526l-.439-1.951c.654-.147 1.281-.312 1.862-.489zm-3.766.859.32 1.975c-.643.104-1.32.198-2.031.277l-.221-1.988c.676-.076 1.32-.165 1.932-.264zm-28.822-7.472c-8.822 0-16 7.178-16 16s7.178 16 16 16 16-7.178 16-16-7.178-16-16-16zm13.949 17c-.221 3.108-1.455 5.934-3.381 8.154l-2.79-2.79-1.414 1.414 2.79 2.79c-2.22 1.926-5.047 3.16-8.154 3.381v-3.949h-2v3.949c-3.108-.221-5.934-1.455-8.154-3.381l2.79-2.79-1.414-1.414-2.79 2.79c-1.926-2.22-3.16-5.047-3.381-8.154h3.949v-2h-3.949c.221-3.108 1.455-5.934 3.381-8.154l2.79 2.79 1.414-1.414-2.79-2.79c2.22-1.926 5.047-3.16 8.154-3.381v3.949h2v-3.949c3.108.221 5.934 1.455 8.154 3.381l-2.79 2.79 1.414 1.414 2.79-2.79c1.926 2.22 3.16 5.047 3.381 8.154h-3.949v2z" fill="url(#SVGID_1_)"/></svg>