<svg id="Layer_35" enable-background="new 0 0 64 64" height="512" viewBox="0 0 64 64" width="512" xmlns="http://www.w3.org/2000/svg" xmlns:xlink="http://www.w3.org/1999/xlink"><linearGradient id="SVGID_1_" gradientUnits="userSpaceOnUse" x1="32" x2="32" y1="63" y2="1"><stop offset="0" stop-color="#9f2fff"/><stop offset="1" stop-color="#0bb1d3"/></linearGradient><path d="m42 57h2v2h-2zm8 2h2v-2h-2zm-4 0h2v-2h-2zm17-12c0 8.822-7.178 16-16 16-8.409 0-15.309-6.526-15.938-14.777-1.937.506-3.968.777-6.062.777-13.233 0-24-10.767-24-24s10.767-24 24-24 24 10.767 24 24c0 2.094-.271 4.125-.777 6.062 8.251.629 14.777 7.529 14.777 15.938zm-38 0c12.131 0 22-9.869 22-22s-9.869-22-22-22-22 9.869-22 22 9.869 22 22 22zm22 14c2.982 0 5.744-.945 8.018-2.541-1.249-2.12-3.527-3.459-6.018-3.459h-4c-2.492 0-4.77 1.34-6.018 3.461 2.273 1.594 5.035 2.539 8.018 2.539zm0-10c-1.103 0-2 .897-2 2h4c0-1.103-.897-2-2-2zm13.949-3h-3.949v-2h3.949c-.221-3.108-1.455-5.934-3.381-8.154l-2.79 2.79-1.414-1.414 2.79-2.79c-2.312-2.005-5.282-3.258-8.541-3.401-2.416 6.783-7.801 12.167-14.584 14.583.158 3.758 1.806 7.136 4.38 9.561 1.279-2.01 3.309-3.406 5.613-3.929-.005-.083-.022-.163-.022-.246 0-2.206 1.794-4 4-4 .287 0 .566.033.836.091l3.269-6.538 1.789.895-3.276 6.552c.84.734 1.382 1.8 1.382 3 0 .083-.017.163-.022.245 2.303.523 4.332 1.919 5.611 3.928 2.481-2.34 4.104-5.567 4.36-9.173zm-15.949-23c0 11.028-8.972 20-20 20s-20-8.972-20-20 8.972-20 20-20 20 8.972 20 20zm-20 18c3.198 0 6.197-.847 8.803-2.316-1.843-1.716-4.262-2.684-6.803-2.684h-4c-2.541 0-4.96.968-6.803 2.684 2.606 1.469 5.605 2.316 8.803 2.316zm-.174-10.982c.059-.002.114-.018.174-.018s.115.016.174.018l.808-13.742-.982-1.473-.982 1.473zm-2.656 4.027c.276-.019.551-.045.83-.045h4c.279 0 .554.026.83.045-.401-1.184-1.511-2.045-2.83-2.045s-2.429.861-2.83 2.045zm20.779-10.045h-3.949v-2h3.949c-.233-4.208-1.91-8.028-4.554-10.981l-2.789 2.789-1.414-1.414 2.789-2.789c-2.952-2.644-6.772-4.321-10.981-4.554v3.949h-2v-3.949c-4.209.233-8.029 1.91-10.981 4.554l2.789 2.789-1.414 1.414-2.789-2.789c-2.644 2.953-4.321 6.773-4.554 10.981h3.949v2h-3.949c.309 5.584 3.163 10.488 7.432 13.577 1.549-1.568 3.476-2.665 5.58-3.198.216-1.715 1.289-3.155 2.789-3.875l-.87-14.78 3.018-4.527 3.018 4.527-.87 14.78c1.5.72 2.573 2.16 2.789 3.875 2.104.533 4.031 1.63 5.58 3.198 4.269-3.089 7.123-7.993 7.432-13.577zm-31.479 2.611-1.933.514c.182.685.413 1.364.686 2.02l1.847-.768c-.239-.573-.441-1.168-.6-1.766zm2.314 7.798c.505.497 1.048.965 1.615 1.391l1.202-1.598c-.497-.374-.973-.784-1.415-1.219zm-.884-4.364-1.729 1.006c.355.61.757 1.204 1.194 1.768l1.579-1.229c-.382-.492-.734-1.012-1.044-1.545z" fill="url(#SVGID_1_)"/></svg>